<?xml version="1.0" encoding="UTF-8"?>
<svg id="Ebene_1" data-name="Ebene 1" xmlns="http://www.w3.org/2000/svg" viewBox="0 0 2415.15 1781.93">
  <defs>
    <style>
      .cls-1 {
        fill: #db6412;
      }
    </style>
  </defs>
  <g id="Logo_Lines" data-name="Logo Lines">
    <path class="cls-1" d="m1917.28,432.05c-98.62-48.7-198.88-100.06-296.65-150.71-7.57-3.93-15.18-7.78-22.64-11.91-9.54-6.85-375.12-217.45-397.77-231.05,0,0,19.01.03,19.01.03L28.91,724.02l9.52-16.46c.1,33.74-.39,197.55.22,228.31.16,7.61.24,15.22.05,22.83-1.54,38.06-3.59,76.1-5.48,114.16,0,0-6.94-12.04-6.94-12.04,46.19,29.76,108.81,71,154.7,101.19,17.14,11.32,34.25,22.71,51.33,34.14-70.31-34.58-150.01-75.57-219.96-111.26,0,0-6.49-3.32-6.49-3.32l-.45-8.72c-1.86-38.05-3.89-76.1-5.4-114.16.57-46.3.36-202.15.43-251.15,0,0,0-10.98,0-10.98l9.51-5.48L1200.27,5.48l9.51-5.48,9.5,5.51,353.77,205.05c22.25,12.6,44.8,24.67,66.01,39,92.46,59.79,186.99,120.98,278.22,182.5h0Z"/>
    <path class="cls-1" d="m496.61,1349.89c99.37,48.64,200.41,99.97,298.93,150.58,7.63,3.92,15.29,7.79,22.78,11.96,9.55,6.95,378.09,217.47,400.9,231.09,0,0-18.99.03-18.99.03l1186.19-686.46-9.48,16.44c-.12-33.73.38-197.53-.38-228.29-.12-7.61-.11-15.22.17-22.83,1.75-38.05,3.6-76.1,5.55-114.14,0,0,6.83,11.83,6.83,11.83-45.27-29.12-106.63-69.47-151.61-98.99-16.8-11.08-33.57-22.21-50.3-33.4,68.91,33.79,147.02,73.85,215.58,108.72,0,0,6.38,3.26,6.38,3.26l.45,8.58c1.94,38.05,3.8,76.09,5.55,114.14-.12,46.29-.31,202.13-.21,251.12,0,0,0,10.96,0,10.96l-9.48,5.49-1186.19,686.46-9.49,5.49-9.5-5.46-356.57-205.06c-22.34-12.74-45.2-24.56-66.6-38.89-93.21-59.83-188.52-121.06-280.5-182.63h0Z"/>
  </g>
</svg>