<?xml version="1.0" encoding="UTF-8"?>
<svg id="Ebene_2" data-name="Ebene 2" xmlns="http://www.w3.org/2000/svg" xmlns:xlink="http://www.w3.org/1999/xlink" viewBox="0 0 2415.14897 1781.93195">
  <defs>
    <style>
      .cls-1, .cls-2, .cls-3, .cls-4, .cls-5, .cls-6, .cls-7, .cls-8, .cls-9 {
        fill: #fff;
      }

      .cls-2 {
        letter-spacing: -.00001em;
      }

      .cls-3 {
        font-family: MADETOMMY-Medium, 'MADE TOMMY';
        src: url("../fonts/MadeTommyMedium.otf")
        font-size: 27.21559px;
        font-weight: 500;
      }

      .cls-4 {
        font-family: MADETOMMY-Black, 'MADE TOMMY';
        src: url("../fonts/MadeTommyBlack.otf")
        font-size: 36.82301px;
        font-weight: 800;
      }

      .cls-10 {
        fill: #0a4655;
      }

      .cls-11 {
        letter-spacing: -.03999em;
      }

      .cls-5 {
        letter-spacing: -.01998em;
      }

      .cls-12, .cls-13 {
        fill: #db6412;
      }

      .cls-6 {
        letter-spacing: 0em;
      }

      .cls-7 {
        letter-spacing: -.04998em;
      }

      .cls-8 {
        font-family: MADETOMMY-Light, 'MADE TOMMY';
        src: url("../fonts/MadeTommyLight.otf")
        font-size: 24.46899px;
        font-weight: 300;
      }

      .cls-14 {
        letter-spacing: -.01em;
      }

      .cls-15 {
        fill: #084655;
      }

      .cls-16 {
        opacity: .25;
        stroke: #000;
        stroke-miterlimit: 10;
      }

      .cls-17 {
        clip-path: url(#clippath-1);
      }

      .cls-18 {
        font-family: MADETOMMY-Bold, 'MADE TOMMY';
        src: url("../fonts/MadeTommyBold.otf")
        font-size: 78.83958px;
        font-weight: 700;
      }

      .cls-19 {
        letter-spacing: -.01999em;
      }

      .cls-20 {
        letter-spacing: -.03em;
      }

      .cls-21 {
        letter-spacing: .00004em;
      }

      .cls-22 {
        letter-spacing: -.00998em;
      }

      .cls-23 {
        fill: #013947;
      }

      .cls-24 {
        letter-spacing: .00004em;
      }

      .cls-25 {
        fill: #db6313;
      }

      .cls-26 {
        clip-path: url(#clippath);
      }

      .cls-13 {
        letter-spacing: -.06998em;
      }

      .cls-27 {
        fill: none;
      }

      .cls-28 {
        letter-spacing: -.00999em;
      }

      .cls-29 {
        letter-spacing: -.00997em;
      }

      .cls-9 {
        letter-spacing: -.00999em;
      }

      .cls-30 {
        letter-spacing: -.01001em;
      }

      .cls-31 {
        fill: #da6415;
      }

      .cls-32 {
        letter-spacing: .01em;
      }

      .cls-33 {
        letter-spacing: -.02002em;
      }
    </style>
    <clipPath id="clippath">
      <rect class="cls-27" x="1017.97485" y="370.33026" width="153.66675" height="153.66675"/>
    </clipPath>
    <clipPath id="clippath-1">
      <rect class="cls-27" x="1017.97485" y="370.33026" width="153.66675" height="153.66675"/>
    </clipPath>
  </defs>
  <g id="Logo_Lines" data-name="Logo Lines">
    <path class="cls-12" d="m1917.2785,432.05386c-98.6164-48.69501-198.88096-100.05917-296.6464-150.71231-7.56906-3.92913-15.18356-7.77934-22.63791-11.90611-9.54334-6.85371-375.11505-217.44739-397.77055-231.05404-.00143.00044,19.00974.02641,19.00974.02641L28.91014,724.0228l9.51671-16.4581c.09743,33.73744-.38808,197.55146.22343,228.31491.1596,7.61057.24288,15.22104.04649,22.83152-1.54083,38.05963-3.59329,76.10433-5.4753,114.15571-.00022,0-6.9405-12.04115-6.9405-12.04115,46.19135,29.76332,108.80859,71.00433,154.69852,101.19253,17.14316,11.32193,34.2498,22.70731,51.32765,34.14243-70.3072-34.57601-150.01103-75.56977-219.96253-111.26069.00042-.00029-6.48603-3.32079-6.48603-3.32079l-.45401-8.72101c-1.85949-38.05239-3.88621-76.09849-5.40456-114.15911.56861-46.30281.3551-202.15487.42691-251.14639-.00006.0002.00336-10.97853.00336-10.97853l9.51346-5.47968L1200.26703,5.47949l9.51318-5.47949,9.49835,5.50546,353.76642,205.05101c22.24661,12.60101,44.79824,24.66695,66.01332,38.99553,92.45832,59.78867,186.99461,120.98432,278.22021,182.50186h0Z"/>
    <path class="cls-12" d="m496.61469,1349.88696c99.37284,48.63723,200.40653,99.96552,298.92679,150.58185,7.63138,3.91955,15.29306,7.78613,22.77603,11.96325,9.5539,6.95064,378.08901,217.47249,400.90292,231.09472.00138-.00048-18.98721.0254-18.98721.0254l1186.1864-686.46393-9.48315,16.44464c-.11832-33.73326.37616-197.5286-.38199-228.28829-.12313-7.60957-.11239-15.21919.16959-22.82877,1.74637-38.05208,3.6043-76.09621,5.54678-114.14414.00009,0,6.8309,11.83365,6.8309,11.83365-45.26809-29.11741-106.62902-69.46516-151.60539-98.99343-16.79976-11.07724-33.56612-22.21276-50.30355-33.3985,68.90644,33.78729,147.0155,73.85305,215.57854,108.72404-.00042.00029,6.38191,3.25746,6.38191,3.25746l.44897,8.57678c1.94245,38.04787,3.80041,76.09203,5.54674,114.14413-.11708,46.29072-.30914,202.13334-.21228,251.11726-.00023-.00019-.00023,10.95659-.00023,10.95659l-9.48315,5.4881-1186.18646,686.46393-9.487,5.49023-9.50195-5.46436-356.56757-205.05505c-22.34119-12.7378-45.20229-24.56322-66.60016-38.89337-93.21237-59.82575-188.52108-121.05705-280.49549-182.6322h0Z"/>
  </g>
  <text class="cls-18" transform="translate(660.60007 648.22159)"><tspan class="cls-12" x="0" y="0">THANK </tspan><tspan class="cls-13" x="286.89404" y="0">Y</tspan><tspan class="cls-12" x="336.24854" y="0">OU</tspan><tspan class="cls-1" x="453.48145" y="0"> </tspan><tspan class="cls-9" x="473.97949" y="0">F</tspan><tspan class="cls-6" x="515.44922" y="0">OR </tspan><tspan class="cls-7" x="648.76514" y="0">WA</tspan><tspan class="cls-5" x="777.11768" y="0">T</tspan><tspan class="cls-2" x="819.61279" y="0">CHING</tspan><tspan class="cls-12" x="1070.47705" y="0">!</tspan></text>
  <text class="cls-3" transform="translate(860.10101 704.59357)"><tspan x="0" y="0">These a</tspan><tspan class="cls-28" x="96.55908" y="0">r</tspan><tspan x="106.79199" y="0">e the people th</tspan><tspan class="cls-20" x="299.85547" y="0">a</tspan><tspan x="313.87158" y="0">t ma</tspan><tspan class="cls-19" x="369.33643" y="0">k</tspan><tspan x="383.37988" y="0">e these </tspan><tspan class="cls-33" x="483.44971" y="0">s</tspan><tspan x="495.77783" y="0">t</tspan><tspan class="cls-30" x="506.17432" y="0">r</tspan><tspan class="cls-24" x="516.40674" y="0">eams possible</tspan></text>
  <g>
    <g>
      <path class="cls-1" d="m1101.52767,1335.85082c-.90836.4034-1.8841.67486-2.90825.7973,1.04598-.62645,1.84803-1.61833,2.2258-2.801-.97765.57994-2.0616,1.00137-3.21579,1.22917-.92354-.98429-2.23909-1.59935-3.69512-1.59935-2.79625,0-5.06287,2.26757-5.06287,5.06287,0,.39675.04556.78401.13098,1.15324-4.20767-.21072-7.9379-2.22675-10.43612-5.29067-.43472.74794-.68435,1.61738-.68435,2.54662,0,1.75596.89317,3.30596,2.25143,4.21336-.82957-.02658-1.61074-.25438-2.29319-.6331v.06359c0,2.4536,1.74457,4.50001,4.0615,4.96416-.42428.1158-.87229.17749-1.33453.17749-.32557,0-.64354-.03227-.95202-.09017.64449,2.01129,2.51435,3.47586,4.72971,3.51667-1.73223,1.35826-3.91532,2.1679-6.28825,2.1679-.40814,0-.81154-.02373-1.20829-.07119,2.24099,1.43609,4.90151,2.27421,7.76136,2.27421,9.31325,0,14.40459-7.71485,14.40459-14.40554,0-.21926-.00475-.43757-.01424-.65493.98998-.71473,1.84898-1.606,2.52764-2.62066Z"/>
      <text class="cls-8" transform="translate(1110.79456 1350.6913)"><tspan x="0" y="0">@EU</tspan><tspan class="cls-14" x="51.2373" y="0">R</tspan><tspan x="65.45361" y="0">oc</tspan><tspan class="cls-14" x="93.8374" y="0">k</tspan><tspan x="105.5332" y="0">et</tspan><tspan class="cls-32" x="128.01953" y="0">S</tspan><tspan x="141.52637" y="0">eries</tspan></text>
    </g>
    <g>
      <path class="cls-1" d="m578.98709,1331.9139c-3.19802,0-5.79981,2.6018-5.79981,5.79981v9.2797c0,3.19802,2.6018,5.79981,5.79981,5.79981h9.2797c3.19802,0,5.79981-2.6018,5.79981-5.79981v-9.2797c0-3.19802-2.6018-5.79981-5.79981-5.79981h-9.2797Zm0,2.31992h9.2797c1.91858,0,3.47989,1.56131,3.47989,3.47989v9.2797c0,1.91858-1.56131,3.47989-3.47989,3.47989h-9.2797c-1.91858,0-3.47989-1.56131-3.47989-3.47989v-9.2797c0-1.91858,1.56131-3.47989,3.47989-3.47989Zm10.43966,1.15996c-.64062,0-1.15996.51934-1.15996,1.15996s.51934,1.15996,1.15996,1.15996,1.15996-.51934,1.15996-1.15996-.51934-1.15996-1.15996-1.15996Zm-5.79981,1.15996c-3.19802,0-5.79981,2.6018-5.79981,5.79981s2.6018,5.79981,5.79981,5.79981,5.79981-2.6018,5.79981-5.79981-2.6018-5.79981-5.79981-5.79981Zm0,2.31992c1.91858,0,3.47989,1.56131,3.47989,3.47989s-1.56131,3.47989-3.47989,3.47989-3.47989-1.56131-3.47989-3.47989,1.56131-3.47989,3.47989-3.47989Z"/>
      <text class="cls-8" transform="translate(605.3143 1350.47353)"><tspan x="0" y="0">@euroroc</tspan><tspan class="cls-14" x="110.42676" y="0">k</tspan><tspan x="122.12256" y="0">etseries</tspan></text>
    </g>
    <g>
      <path class="cls-1" d="m1573.21283,1333.43069c-1.53428-.71785-3.17481-1.23956-4.88994-1.53662-.21064.38083-.45672.89304-.62639,1.30051-1.82322-.27419-3.62968-.27419-5.41938,0-.16963-.40747-.42131-.91969-.63383-1.30051-1.71698.29706-3.35939.82069-4.89368,1.54042-3.09466,4.67644-3.93358,9.23673-3.51412,13.73226,2.05254,1.53279,4.04171,2.46391,5.9973,3.07321.48285-.66454.91348-1.37095,1.28446-2.11545-.70655-.26847-1.38327-.59978-2.02269-.98441.16963-.12567.33557-.25707.49588-.39226,3.90001,1.82413,8.13747,1.82413,11.99088,0,.16219.13519.32809.26659.49588.39226-.6413.38651-1.31988.71782-2.02642.98632.37098.74258.79976,1.45091,1.28446,2.11541,1.95748-.6093,3.94849-1.54039,6.00103-3.0751.49217-5.21147-.84077-9.72988-3.52344-13.73606Zm-12.16425,10.97135c-1.17074,0-2.13085-1.09296-2.13085-2.42392s.9396-2.4258,2.13085-2.4258,2.15135,1.09293,2.13085,2.4258c.00185,1.33096-.93957,2.42392-2.13085,2.42392Zm7.87462,0c-1.17074,0-2.13085-1.09296-2.13085-2.42392s.93957-2.4258,2.13085-2.4258,2.15135,1.09293,2.13085,2.4258c0,1.33096-.9396,2.42392-2.13085,2.42392Z"/>
      <text class="cls-8" transform="translate(1586.97376 1350.45302)"><tspan x="0" y="0">discord</tspan><tspan class="cls-22" x="82.6543" y="0">.</tspan><tspan x="86.91211" y="0">gg/mb</tspan><tspan class="cls-32" x="164.11035" y="0">Z</tspan><tspan x="178.44873" y="0">mh</tspan><tspan class="cls-11" x="213.21875" y="0">F</tspan><tspan class="cls-21" x="224.98828" y="0">a</tspan></text>
    </g>
  </g>
  <g>
    <g id="ERS_LOGO" data-name="ERS LOGO">
      <g id="Ebene_1" data-name="Ebene 1">
        <g class="cls-26">
          <polygon class="cls-23" points="1035.1191 481.69954 1035.1191 412.60749 1094.95446 378.06157 1154.78984 412.60749 1154.78984 481.69954 1094.95446 516.24546 1035.1191 481.69954"/>
          <path class="cls-10" d="m1094.95445,378.94874l59.06704,34.10244v68.20468l-59.06704,34.10244-59.06704-34.10244v-68.20468l59.06704-34.10244Zm0-1.77435l-60.6037,34.98951v69.97922l60.6037,34.98951,60.6037-34.98951v-69.97922l-60.6037-34.98951Z"/>
          <polygon class="cls-15" points="1095.54784 410.18927 1118.85058 396.83431 1150.41096 414.91443 1150.41076 441.62837 1095.54784 410.18927"/>
          <g class="cls-17">
            <path class="cls-1" d="m1118.85053,397.12948l31.30427,17.93341-.0001,13.35528-.0001,12.76817-54.09172-30.99704,5.89035-3.37584,16.8973-9.68398Zm0-.59039c-7.93925,4.55008-15.87849,9.10015-23.81783,13.65022,18.5447,10.62698,37.0894,21.25396,55.63412,31.88094.0001-9.10137.0002-18.20285.0002-27.30422-10.60547-6.07568-21.21103-12.15125-31.81649-18.22693"/>
            <polygon class="cls-15" points="1039.49829 414.91418 1071.05816 396.83437 1094.3609 410.18934 1039.49819 441.62832 1039.49829 414.91418"/>
            <path class="cls-1" d="m1071.05811,397.12951l6.41128,3.67427,16.37647,9.38555-27.04156,15.49596-27.05006,15.50098.0001-26.12365,31.30376-17.93311Zm.00011-.59039c-10.60536,6.07558-21.21073,12.15105-31.81609,18.22663,0,9.10147,0,18.20294-.0001,27.30442,18.54471-10.62698,37.08931-21.25386,55.63402-31.88084-7.93935-4.55006-15.87859-9.10014-23.81783-13.65022"/>
            <path class="cls-15" d="m1094.95445,474.87525c-16.15468-9.23977-32.30936-18.47965-48.46403-27.71943,16.15468-9.23978,32.30935-18.47955,48.46403-27.71943,16.15222,9.23988,32.30454,18.47965,48.45675,27.71943-16.15222,9.23978-32.30454,18.47966-48.45675,27.71943"/>
            <polygon class="cls-15" points="1095.54784 484.13799 1150.41066 452.69891 1150.41096 479.41284 1118.85048 497.49297 1095.54784 484.13799"/>
            <path class="cls-1" d="m1150.15461,453.14087l.0001,12.76827.0001,13.35528-31.30427,17.93342-22.78765-13.05983,22.75548-13.03995,31.33624-17.95719Zm.51222-.8839c-18.54472,10.62698-37.08942,21.25396-55.63412,31.88104,7.93924,4.55007,15.87858,9.10004,23.81783,13.65011,10.60547-6.07557,21.21103-12.15125,31.81649-18.22682-.0001-9.10148-.0001-18.20285-.0002-27.30433"/>
            <polygon class="cls-15" points="1039.49794 479.41334 1039.49784 452.6992 1094.36066 484.13819 1071.05792 497.49326 1039.49794 479.41334"/>
            <path class="cls-1" d="m1039.75396,453.14119l22.76398,13.04487,31.32763,17.95216-11.13346,6.38065-11.65429,6.67918-12.11129-6.93826-19.19246-10.99486v-13.35538l-.0001-12.76837Zm-.51222-.8839c0,9.10148.0001,18.20296.0001,27.30453,10.60536,6.07547,21.21072,12.15104,31.81609,18.22652,7.93924-4.55007,15.87848-9.10004,23.81773-13.65012-18.54461-10.62698-37.08921-21.25395-55.63392-31.88093"/>
            <path class="cls-25" d="m1138.81985,418.69884c-6.28405-2.76794-12.5719-5.73309-18.76538-8.70163-.47729-.22979-.95929-.45147-1.4249-.70144-.57297-.43723-23.25398-13.50239-24.65409-14.34069-.0001,0,1.94747.00266,1.94747.00266l-73.80276,42.50965.97496-1.68603c-.00133,3.08522-.01281,12.62567.03084,15.57166-.15746,2.36063-.36726,4.7187-.55954,7.07789l-.71097-1.23354c3.11031,2.1707,6.30371,4.40706,9.3875,6.62672,1.03838.74437,2.07306,1.49518,3.10479,2.25112-4.65098-2.0659-9.31989-4.23905-13.91996-6.4117l-.63024-.29607c-.19035-2.19692-.36347-4.40419-.53681-6.59999-.08492-.94249-.14086-1.88549-.09312-2.83125.04896-.79723.02212-2.01509.03114-2.83126.00389-.61999.00093-12.15688.00379-12.44946l.97466-.56139,73.80275-42.50965.97455-.56139c2.59185,1.49681,23.35212,13.56119,25.67075,14.82955,6.11941,4.16099,12.23259,8.46151,18.19455,12.84623"/>
            <path class="cls-25" d="m1050.73544,475.6066c6.30546,2.75186,12.68683,5.733,18.90685,8.68832.48138.22876.96584.45209,1.43197.70728.57.44666,23.4391,13.50536,24.84751,14.34489,0-.0001-1.94522.00256-1.94522.00256l73.54624-42.5623-.97148,1.6847c.03995-.74979-.02642-12.38821-.00245-12.73898-.00769-.94362-.08155-1.88723-.01936-2.83085.17897-2.35981.36931-4.71818.56826-7.07727l.69979,1.21233c-3.04792-2.12398-6.1773-4.31281-9.19952-6.48464-1.01758-.72848-2.03167-1.4629-3.04291-2.20256,3.40168,1.50245,6.87619,3.10254,10.24691,4.67137,1.34038.61713,2.67861,1.25823,4.01603,1.88222l.0797.92128c.19905,2.35909.38919,4.71747.56826,7.07727.02879.47175.02991.94362.01732,1.41537-.0376.94352-.04303,1.88693-.03914,2.83095-.00368.61405.00266,12.16149,0,12.44598,0-.0001-.97147.56222-.97147.56222l-73.54635,42.5623-.97189.56242c-2.60957-1.4877-23.53181-13.57287-25.86887-14.82116-6.16183-4.13896-12.35501-8.47953-18.35016-12.85371"/>
            <path class="cls-1" d="m1083.02475,442.56213h-15.41544v-2.5565h15.41544v2.5565Zm.04231,11.75991h-15.45785v-2.5565h15.45785v2.5565Zm-15.1331-8.44675h14.79442v2.5565h-14.79442v-2.5565Z"/>
            <path class="cls-1" d="m1100.28644,454.32207l-2.221-5.01066h-10.54574v-2.5565h10.33184c1.72731,0,2.05647-1.00242,2.05647-2.10677,0-1.08386-.32916-2.08597-2.05647-2.08597h-10.33184v-2.5565h10.33184c2.36913,0,4.26097,1.20669,4.26097,4.64248,0,2.14765-.72377,3.43609-1.85896,4.09051l2.58283,5.58343h-2.54995Z"/>
            <path class="cls-1" d="m1122.3287,450.01673c0,2.37241-1.0306,4.29499-3.47605,4.29499h-11.5206v-2.5565h11.5206c1.24593,0,1.55337-.77735,1.55337-1.73849s-.30744-1.65663-1.55337-1.65663h-8.64416c-2.12265,0-3.27628-1.67692-3.27628-4.15187,0-2.47465,1.15363-4.21293,3.27628-4.21293h11.50503v2.5565h-11.50503c-.9383,0-1.3536.59295-1.3536,1.65643,0,1.06368.41531,1.59537,1.3536,1.59537h8.64416c2.44545,0,3.47605,1.67712,3.47605,4.21313"/>
            <rect class="cls-1" x="1087.5197" y="446.82905" width="2.5565" height="7.49299"/>
            <polygon class="cls-31" points="1091.35658 426.60151 1093.14546 427.63261 1095.8753 426.05026 1098.56539 427.60854 1098.56713 428.64036 1096.91552 427.6906 1094.2075 429.26025 1091.36846 427.6277 1091.35658 426.60151"/>
            <polygon class="cls-31" points="1091.36012 428.66946 1094.07264 430.22928 1096.7864 428.67561 1098.56883 429.68377 1094.96903 431.77036 1091.36186 429.69606 1091.36012 428.66946"/>
            <polygon class="cls-31" points="1091.35468 425.5351 1093.15145 426.56405 1095.85906 425.00875 1098.56339 426.55463 1098.56165 425.52281 1094.95448 423.44851 1091.35468 425.5351"/>
          </g>
        </g>
      </g>
    </g>
    <image width="6868" height="1501" transform="translate(1237.9937 429.75823) scale(.02319)" xlink:href="../../../asset dump/r1lightpng.png"/>
  </g>
  <rect class="cls-16" x="745.10296" y="825.40506" width="925.04348" height="443.73913"/>
  <text class="cls-4" transform="translate(1130.18622 800.9231)"><tspan x="0" y="0">CREDI</tspan><tspan class="cls-29" x="111.27832" y="0">T</tspan><tspan x="132.70996" y="0">S</tspan></text>
</svg>