<?xml version="1.0" encoding="UTF-8"?>
<svg id="Overlay_blank" data-name="Overlay blank" xmlns="http://www.w3.org/2000/svg" xmlns:xlink="http://www.w3.org/1999/xlink" viewBox="0 0 2944.09284 2408.2271">
  <defs>
    <style>
      .cls-1 {
        fill: #fff;
      }

      .cls-2 {
        fill: url(#Unbenannter_Verlauf_45-2);
      }

      .cls-3 {
        fill: url(#Unbenannter_Verlauf_45);
      }

      .cls-4 {
        fill: url(#Unbenannter_Verlauf_8);
      }

      .cls-5 {
        fill: #06191e;
      }

      .cls-6 {
        fill: #da6517;
      }

      .cls-7 {
        fill: url(#Unbenannter_Verlauf_76);
      }
    </style>
    <linearGradient id="Unbenannter_Verlauf_8" data-name="Unbenannter Verlauf 8" x1="515.09559" y1="1322.02172" x2="2435.09559" y2="1322.02172" gradientUnits="userSpaceOnUse">
      <stop offset="0" stop-color="#101926"/>
      <stop offset=".5" stop-color="#1c1c1c"/>
      <stop offset="1" stop-color="#281511"/>
    </linearGradient>
    <linearGradient id="Unbenannter_Verlauf_45" data-name="Unbenannter Verlauf 45" x1="515.09559" y1="1862.02172" x2="2435.09552" y2="1862.02172" gradientUnits="userSpaceOnUse">
      <stop offset="0" stop-color="#06191e"/>
      <stop offset="0" stop-color="#e94b21"/>
      <stop offset="1" stop-color="#da6517"/>
    </linearGradient>
    <linearGradient id="Unbenannter_Verlauf_76" data-name="Unbenannter Verlauf 76" x1="655.5311" y1="931.27648" x2="655.5311" y2="867.73843" gradientUnits="userSpaceOnUse">
      <stop offset="0" stop-color="#e94b21" stop-opacity="0"/>
      <stop offset=".09071" stop-color="#e94b21" stop-opacity=".03851"/>
      <stop offset=".23872" stop-color="#e94b21" stop-opacity=".14317"/>
      <stop offset=".42573" stop-color="#e94b21" stop-opacity=".31388"/>
      <stop offset=".64429" stop-color="#e94b21" stop-opacity=".55073"/>
      <stop offset=".8866" stop-color="#e94b21" stop-opacity=".84932"/>
      <stop offset="1" stop-color="#e94b21"/>
    </linearGradient>
    <linearGradient id="Unbenannter_Verlauf_45-2" data-name="Unbenannter Verlauf 45" y1="874.58626" x2="795.96516" y2="874.58626" xlink:href="#Unbenannter_Verlauf_45"/>
  </defs>
  <rect class="cls-1" x="515.09559" y="1826.76153" width="1920" height="70.52038"/>
  <polygon class="cls-1" points="768.3782 817.28191 768.3782 1753.19495 2435.09559 1753.19495 2435.09559 1897.28191 515.09559 1897.28191 515.09559 817.28191 768.3782 817.28191"/>
  <polygon class="cls-4" points="765.83473 1756.24114 765.83473 817.28191 515.09559 817.28191 515.09559 1756.24114 515.09559 1826.76152 2435.09559 1826.76152 2435.09559 1756.24114 765.83473 1756.24114"/>
  <rect class="cls-3" x="515.09559" y="1826.76152" width="1919.99993" height="70.52039"/>
  <g>
    <polygon class="cls-7" points="768.3782 931.27648 515.09631 931.27648 515.09631 867.73843 795.96588 867.73843 768.3782 931.27648"/>
    <rect class="cls-2" x="515.09559" y="846.9993" width="280.86957" height="55.17391"/>
    <polygon class="cls-6" points="795.96516 902.17321 768.3782 931.27648 768.3782 902.17321 795.96516 902.17321"/>
    <polygon class="cls-5" points="790.94541 902.17321 771.39688 922.79622 771.39688 902.17321 790.94541 902.17321"/>
  </g>
</svg>