<?xml version="1.0" encoding="UTF-8"?>
<svg xmlns="http://www.w3.org/2000/svg" xmlns:xlink="http://www.w3.org/1999/xlink" viewBox="0 0 1948.38867 1652.99414">
  <defs>
    <style>
      .cls-1, .cls-2, .cls-3 {
        fill: #fff;
      }

      .cls-4 {
        fill: #0a4655;
      }

      .cls-5 {
        letter-spacing: -.03999em;
      }

      .cls-6 {
        fill: #0b4655;
      }

      .cls-7 {
        letter-spacing: -.02em;
      }

      .cls-8 {
        letter-spacing: -.00002em;
      }

      .cls-9 {
        stroke: url(#ERS_Orange_Gradient);
      }

      .cls-9, .cls-10 {
        stroke-miterlimit: 10;
        stroke-width: 14px;
      }

      .cls-9, .cls-10, .cls-11 {
        fill: none;
      }

      .cls-12 {
        letter-spacing: -.01em;
      }

      .cls-13 {
        fill: #084655;
      }

      .cls-14 {
        clip-path: url(#clippath-1);
      }

      .cls-15 {
        letter-spacing: -.01002em;
      }

      .cls-10 {
        stroke: url(#Unbenannter_Verlauf_3);
      }

      .cls-16 {
        letter-spacing: -.02997em;
      }

      .cls-17 {
        fill: #013947;
      }

      .cls-18 {
        fill: #db6313;
      }

      .cls-2 {
        font-family: MADETOMMY-Medium, 'MADE TOMMY';
        font-weight: 500;
      }

      .cls-2, .cls-3 {
        font-size: 24.46899px;
      }

      .cls-19 {
        clip-path: url(#clippath);
      }

      .cls-3 {
        font-family: MADETOMMY, 'MADE TOMMY';
      }

      .cls-20 {
        letter-spacing: .00002em;
      }

      .cls-21 {
        fill: #da6415;
      }

      .cls-22 {
        letter-spacing: .01em;
      }
    </style>
    <clipPath id="clippath">
      <rect class="cls-11" x="828.68134" y="1535.0548" width="103.135" height="103.135"/>
    </clipPath>
    <clipPath id="clippath-1">
      <rect class="cls-11" x="828.68134" y="1535.0548" width="103.135" height="103.135"/>
    </clipPath>
    <linearGradient id="ERS_Orange_Gradient" data-name="ERS Orange Gradient" x1="156.66708" y1="1020.51295" x2="898.86083" y2="1020.51295" gradientUnits="userSpaceOnUse">
      <stop offset="0" stop-color="#06191e"/>
      <stop offset="0" stop-color="#e94b21"/>
      <stop offset="1" stop-color="#da6517"/>
    </linearGradient>
    <linearGradient id="Unbenannter_Verlauf_3" data-name="Unbenannter Verlauf 3" x1="1076.91651" y1="1020.51295" x2="1819.11026" y2="1020.51295" gradientUnits="userSpaceOnUse">
      <stop offset="0" stop-color="#da6517"/>
      <stop offset="1" stop-color="#e94b21"/>
      <stop offset="1" stop-color="#06191e"/>
    </linearGradient>
  </defs>
  <g id="Sponsors">
    <g>
      <g id="ERS_LOGO" data-name="ERS LOGO">
        <g class="cls-19">
          <polygon class="cls-17" points="840.18787 1609.80142 840.18787 1563.42959 880.34699 1540.24374 920.5061 1563.42959 920.5061 1609.80142 880.34699 1632.98726 840.18787 1609.80142"/>
          <path class="cls-4" d="m880.34698,1540.83918l39.64344,22.8882v45.77626l-39.64344,22.8882-39.64344-22.8882v-45.77626l39.64344-22.8882Zm0-1.19087l-40.67479,23.48356v46.96726l40.67479,23.48356,40.67479-23.48356v-46.96726l-40.67479-23.48356Z"/>
          <polygon class="cls-13" points="880.74524 1561.80658 896.38511 1552.84326 917.56718 1564.97791 917.56704 1582.90724 880.74524 1561.80658"/>
          <g class="cls-14">
            <path class="cls-1" d="m896.38508,1553.04136l21.01018,12.03619-.00007,8.96353-.00007,8.56949-36.30421-20.80398,3.95337-2.26573,11.3408-6.4995Zm0-.39625c-5.32851,3.05383-10.65701,6.10766-15.98558,9.16148,12.44647,7.1324,24.89293,14.26481,37.3394,21.39721.00007-6.10848.00013-12.21703.00013-18.32551-7.11797-4.07775-14.236-8.15544-21.35396-12.23319"/>
            <polygon class="cls-13" points="843.12702 1564.97774 864.30874 1552.8433 879.94861 1561.80662 843.12695 1582.90722 843.12702 1564.97774"/>
            <path class="cls-1" d="m864.30871,1553.04139l4.303,2.46602,10.99123,6.29921-18.14921,10.40027-18.15492,10.40364.00007-17.53315,21.00983-12.03599Zm.00007-.39625c-7.1179,4.07768-14.23579,8.1553-21.35369,12.23299,0,6.10854,0,12.21709-.00007,18.32564,12.44647-7.1324,24.89287-14.26474,37.33934-21.39715-5.32857-3.05382-10.65708-6.10765-15.98558-9.16148"/>
            <path class="cls-13" d="m880.34698,1605.22123c-10.84238-6.20137-21.68475-12.40281-32.52713-18.60418,10.84237-6.20137,21.68475-12.40274,32.52713-18.60418,10.84072,6.20144,21.68152,12.40281,32.52224,18.60418-10.84072,6.20137-21.68152,12.40281-32.52224,18.60418"/>
            <polygon class="cls-13" points="880.74524 1611.43801 917.56698 1590.33735 917.56718 1608.26668 896.38504 1620.40134 880.74524 1611.43801"/>
            <path class="cls-1" d="m917.39513,1590.63398l.00007,8.56955.00007,8.96353-21.01018,12.0362-15.29416-8.76524,15.27257-8.7519,21.03163-12.05215Zm.34378-.59324c-12.44648,7.1324-24.89294,14.26481-37.3394,21.39728,5.3285,3.05383,10.65707,6.10759,15.98558,9.16141,7.11797-4.07768,14.236-8.15543,21.35396-12.23312-.00007-6.10855-.00007-12.21703-.00013-18.32558"/>
            <polygon class="cls-13" points="843.12678 1608.26702 843.12671 1590.33755 879.94845 1611.43814 864.30858 1620.40154 843.12678 1608.26702"/>
            <path class="cls-1" d="m843.29861,1590.63419l15.27828,8.7552,21.02586,12.04878-7.47234,4.28244-7.8219,4.4828-8.12862-4.65668-12.88122-7.37931v-8.9636l-.00007-8.56962Zm-.34378-.59324c0,6.10855.00007,12.2171.00007,18.32571,7.1179,4.07761,14.23579,8.1553,21.35369,12.23291,5.3285-3.05383,10.65701-6.10759,15.98551-9.16141-12.4464-7.1324-24.8928-14.26481-37.33927-21.39721"/>
            <path class="cls-18" d="m909.78769,1567.51786c-4.21761-1.85773-8.43776-3.84782-12.59457-5.84019-.32034-.15422-.64384-.30301-.95634-.47078-.38456-.29345-15.60714-9.06227-16.54684-9.6249-.00007,0,1.30706.00179,1.30706.00179l-49.53347,28.53078.65435-1.1316c-.00089,2.07068-.00859,8.47385.0207,10.45108-.10568,1.58436-.24649,3.167-.37554,4.7504l-.47718-.8279c2.08752,1.45689,4.2308,2.95784,6.30052,4.44759.69692.49959,1.39136,1.00351,2.08381,1.51086-3.12155-1.38655-6.25514-2.84508-9.34252-4.30328l-.42299-.19871c-.12775-1.47449-.24395-2.95592-.36028-4.42965-.057-.63256-.09454-1.26546-.0625-1.90023.03286-.53507.01485-1.35245.0209-1.90023.00261-.41612.00062-8.15921.00254-8.35558l.65415-.37679,49.53346-28.53078.65408-.37679c1.73955,1.0046,15.67302,9.10173,17.22918,9.95301,4.1071,2.79269,8.21003,5.67903,12.21146,8.62188"/>
            <path class="cls-18" d="m850.66894,1605.71208c4.23197,1.84694,8.51489,3.84776,12.68952,5.83125.32309.15353.64824.30342.96108.4747.38256.29978,15.73139,9.06426,16.67666,9.62772,0-.00007-1.30555.00172-1.30555.00172l49.3613-28.56612-.65202,1.1307c.02682-.50323-.01773-8.31447-.00165-8.54989-.00516-.63332-.05473-1.26664-.01299-1.89995.12011-1.58381.24787-3.16665.38139-4.74998l.46967.81367c-2.04565-1.42553-4.14595-2.89459-6.17435-4.35223-.68296-.48893-1.36358-.98184-2.04228-1.47827,2.28307,1.00839,4.61502,2.0823,6.87732,3.13524.89961.41419,1.79778.84447,2.6954,1.26327l.05349.61833c.13359,1.58333.26121,3.16618.38139,4.74998.01932.31662.02008.63332.01162.94994-.02524.63325-.02888,1.26643-.02627,1.90002-.00247.41213.00179,8.16231,0,8.35325,0-.00007-.65201.37734-.65201.37734l-49.36138,28.56612-.65229.37747c-1.75144-.99848-15.79361-9.10957-17.36216-9.94737-4.13558-2.77791-8.29219-5.69112-12.3159-8.6269"/>
            <path class="cls-1" d="m872.34024,1583.53395h-10.34623v-1.71582h10.34623v1.71582Zm.0284,7.89278h-10.37469v-1.71582h10.37469v1.71582Zm-10.15673-5.66912h9.92942v1.71582h-9.92942v-1.71582Z"/>
            <path class="cls-1" d="m883.9256,1591.42675l-1.49065-3.36295h-7.07788v-1.71582h6.93432c1.1593,0,1.38022-.67279,1.38022-1.41398,0-.72745-.22092-1.40002-1.38022-1.40002h-6.93432v-1.71582h6.93432c1.59006,0,2.85979.80988,2.85979,3.11585,0,1.44141-.48577,2.30617-1.24766,2.74539l1.7335,3.74737h-1.71142Z"/>
            <path class="cls-1" d="m898.71949,1588.53718c0,1.59227-.6917,2.88263-2.33298,2.88263h-7.73217v-1.71582h7.73217c.83622,0,1.04256-.52173,1.04256-1.1668s-.20634-1.11186-1.04256-1.11186h-5.80162c-1.42464,0-2.19891-1.12548-2.19891-2.78657,0-1.66089.77427-2.82755,2.19891-2.82755h7.72172v1.71582h-7.72172c-.62975,0-.90848.39797-.90848,1.11173,0,.7139.27874,1.07075.90848,1.07075h5.80162c1.64129,0,2.33298,1.12562,2.33298,2.82768"/>
            <rect class="cls-1" x="875.35707" y="1586.39774" width="1.71582" height="5.029"/>
            <polygon class="cls-21" points="877.93223 1572.82182 879.13286 1573.51385 880.96501 1572.45184 882.7705 1573.4977 882.77166 1574.19021 881.66317 1573.55277 879.84566 1574.60626 877.9402 1573.51055 877.93223 1572.82182"/>
            <polygon class="cls-21" points="877.93461 1574.20974 879.75515 1575.25663 881.57651 1574.21387 882.77281 1574.8905 880.35677 1576.29094 877.93578 1574.89876 877.93461 1574.20974"/>
            <polygon class="cls-21" points="877.93096 1572.10609 879.13688 1572.79668 880.95412 1571.75282 882.76915 1572.79035 882.76799 1572.09784 880.347 1570.70565 877.93096 1572.10609"/>
          </g>
        </g>
      </g>
      <image width="6868" height="1501" transform="translate(987.81516 1569.2169) scale(.02319)" xlink:href="../../../asset dump/r1lightpng.png"/>
    </g>
  </g>
  <g id="Top_Bar_Information_no_games_" data-name="Top Bar Information (no games)">
    <g>
      <g>
        <path class="cls-1" d="m881.79207,612.02164c-.90836.4034-1.8841.67486-2.90825.7973,1.04598-.62645,1.84803-1.61833,2.2258-2.801-.97765.57994-2.0616,1.00137-3.21579,1.22917-.92354-.98429-2.23909-1.59935-3.69512-1.59935-2.79625,0-5.06287,2.26757-5.06287,5.06287,0,.39675.04556.78401.13098,1.15324-4.20767-.21072-7.9379-2.22675-10.43612-5.29067-.43472.74794-.68435,1.61738-.68435,2.54662,0,1.75596.89317,3.30596,2.25143,4.21336-.82957-.02658-1.61074-.25438-2.29319-.6331v.06359c0,2.4536,1.74457,4.50001,4.0615,4.96416-.42428.1158-.87229.17749-1.33453.17749-.32557,0-.64354-.03227-.95202-.09017.64449,2.01129,2.51435,3.47586,4.72971,3.51667-1.73223,1.35826-3.91532,2.1679-6.28825,2.1679-.40814,0-.81154-.02373-1.20829-.07119,2.24099,1.43609,4.90151,2.27421,7.76136,2.27421,9.31325,0,14.40459-7.71485,14.40459-14.40554,0-.21926-.00475-.43757-.01424-.65493.98998-.71473,1.84898-1.606,2.52764-2.62066Z"/>
        <text class="cls-2" transform="translate(891.05893 626.86212)"><tspan x="0" y="0">@EU</tspan><tspan class="cls-16" x="52.50977" y="0">R</tspan><tspan x="67.24023" y="0">oc</tspan><tspan class="cls-7" x="95.03613" y="0">ke</tspan><tspan x="121.21826" y="0">t</tspan><tspan class="cls-22" x="130.56494" y="0">S</tspan><tspan x="145.31934" y="0">eries</tspan></text>
      </g>
      <g>
        <path class="cls-1" d="m359.25148,608.08472c-3.19802,0-5.79981,2.6018-5.79981,5.79981v9.2797c0,3.19802,2.6018,5.79981,5.79981,5.79981h9.2797c3.19802,0,5.79981-2.6018,5.79981-5.79981v-9.2797c0-3.19802-2.6018-5.79981-5.79981-5.79981h-9.2797Zm0,2.31992h9.2797c1.91858,0,3.47989,1.56131,3.47989,3.47989v9.2797c0,1.91858-1.56131,3.47989-3.47989,3.47989h-9.2797c-1.91858,0-3.47989-1.56131-3.47989-3.47989v-9.2797c0-1.91858,1.56131-3.47989,3.47989-3.47989Zm10.43966,1.15996c-.64062,0-1.15996.51934-1.15996,1.15996s.51934,1.15996,1.15996,1.15996,1.15996-.51934,1.15996-1.15996-.51934-1.15996-1.15996-1.15996Zm-5.79981,1.15996c-3.19802,0-5.79981,2.6018-5.79981,5.79981s2.6018,5.79981,5.79981,5.79981,5.79981-2.6018,5.79981-5.79981-2.6018-5.79981-5.79981-5.79981Zm0,2.31992c1.91858,0,3.47989,1.56131,3.47989,3.47989s-1.56131,3.47989-3.47989,3.47989-3.47989-1.56131-3.47989-3.47989,1.56131-3.47989,3.47989-3.47989Z"/>
        <text class="cls-2" transform="translate(385.57869 626.64435)"><tspan x="0" y="0">@eu</tspan><tspan class="cls-15" x="50.89502" y="0">r</tspan><tspan class="cls-20" x="60.09473" y="0">o</tspan><tspan class="cls-15" x="74.65381" y="0">r</tspan><tspan class="cls-20" x="83.85352" y="0">oc</tspan><tspan class="cls-7" x="111.6499" y="0">ke</tspan><tspan x="137.83203" y="0">tseries</tspan></text>
      </g>
      <g>
        <path class="cls-1" d="m1353.47722,609.60151c-1.53428-.71785-3.17481-1.23956-4.88994-1.53662-.21064.38083-.45672.89304-.62639,1.30051-1.82322-.27419-3.62968-.27419-5.41938,0-.16963-.40747-.42131-.91969-.63383-1.30051-1.71698.29706-3.35939.82069-4.89368,1.54042-3.09466,4.67644-3.93358,9.23673-3.51412,13.73226,2.05254,1.53279,4.04171,2.46391,5.9973,3.07321.48285-.66454.91348-1.37095,1.28446-2.11545-.70655-.26847-1.38327-.59978-2.02269-.98441.16963-.12567.33557-.25707.49588-.39226,3.90001,1.82413,8.13747,1.82413,11.99088,0,.16219.13519.32809.26659.49588.39226-.6413.38651-1.31988.71782-2.02642.98632.37098.74258.79976,1.45091,1.28446,2.11541,1.95748-.6093,3.94849-1.54039,6.00103-3.0751.49217-5.21147-.84077-9.72988-3.52344-13.73606Zm-12.16425,10.97135c-1.17074,0-2.13085-1.09296-2.13085-2.42392s.9396-2.4258,2.13085-2.4258,2.15135,1.09293,2.13085,2.4258c.00185,1.33096-.93957,2.42392-2.13085,2.42392Zm7.87462,0c-1.17074,0-2.13085-1.09296-2.13085-2.42392s.93957-2.4258,2.13085-2.4258,2.15135,1.09293,2.13085,2.4258c0,1.33096-.9396,2.42392-2.13085,2.42392Z"/>
        <text class="cls-3" transform="translate(1367.23816 626.62384)"><tspan x="0" y="0">d</tspan><tspan class="cls-22" x="15.36621" y="0">i</tspan><tspan class="cls-20" x="21.04248" y="0">s</tspan><tspan class="cls-12" x="32.12695" y="0">c</tspan><tspan x="45.24219" y="0">o</tspan><tspan class="cls-7" x="59.97217" y="0">r</tspan><tspan x="68.2915" y="0">d</tspan><tspan class="cls-12" x="83.65771" y="0">.</tspan><tspan x="88.91846" y="0">gg/mb</tspan><tspan class="cls-22" x="166.80225" y="0">Z</tspan><tspan class="cls-8" x="181.0918" y="0">mh</tspan><tspan class="cls-5" x="215.73926" y="0">F</tspan><tspan x="227.50879" y="0">a</tspan></text>
      </g>
    </g>
  </g>
  <g id="Caster_Cam_Left" data-name="Caster Cam Left">
    <g id="Cam_Layout" data-name="Cam Layout">
      <rect class="cls-6" x="163.66708" y="815.70846" width="724.76094" height="27.43651"/>
      <rect class="cls-6" x="163.66708" y="1197.88093" width="724.76094" height="27.43651"/>
      <rect class="cls-9" x="163.66708" y="815.70846" width="728.19375" height="409.60898"/>
      <polygon class="cls-6" points="288.2332 1197.88093 767.6178 1197.88093 709.42209 1263.79657 346.10583 1263.79657 288.2332 1197.88093"/>
    </g>
  </g>
  <g id="Caster_Cam_Right" data-name="Caster Cam Right">
    <g id="Cam_Layout-2" data-name="Cam Layout">
      <rect class="cls-6" x="1083.91651" y="815.70846" width="724.76094" height="27.43651"/>
      <rect class="cls-6" x="1083.91651" y="1197.88093" width="724.76094" height="27.43651"/>
      <rect class="cls-10" x="1083.91651" y="815.70846" width="728.19375" height="409.60898"/>
      <polygon class="cls-6" points="1208.48262 1197.88093 1687.86723 1197.88093 1629.67151 1263.79657 1266.35526 1263.79657 1208.48262 1197.88093"/>
    </g>
  </g>
  <g id="Broadcaster">
    <image width="90" height="90" transform="translate(966.45217 1344.13043) scale(.74614)" xlink:href="../../../asset dump/broadcasterlogo.png"/>
  </g>
</svg>