<?xml version="1.0" encoding="UTF-8"?>
<svg id="Top_Bar_Information_no_games_" data-name="Top Bar Information (no games)" xmlns="http://www.w3.org/2000/svg" viewBox="0 0 1948.38867 1652.99414">
  <defs>
    <style>
      .cls-1, .cls-2, .cls-3 {
        fill: #fff;
      }

      .cls-4 {
        letter-spacing: -.03999em;
      }

      .cls-5 {
        letter-spacing: -.02em;
      }

      .cls-6 {
        letter-spacing: -.00002em;
      }

      .cls-7 {
        letter-spacing: -.01em;
      }

      .cls-8 {
        letter-spacing: -.01002em;
      }

      .cls-9 {
        letter-spacing: -.02997em;
      }

      .cls-2 {
        font-family: MADETOMMY-Medium, 'MADE TOMMY';
        font-weight: 500;
      }

      .cls-2, .cls-3 {
        font-size: 24.46899px;
      }

      .cls-3 {
        font-family: MADETOMMY, 'MADE TOMMY';
      }

      .cls-10 {
        letter-spacing: .00002em;
      }

      .cls-11 {
        letter-spacing: .01em;
      }
    </style>
  </defs>
  <g>
    <path class="cls-1" d="m881.79207,612.02164c-.90836.4034-1.8841.67486-2.90825.7973,1.04598-.62645,1.84803-1.61833,2.2258-2.801-.97765.57994-2.0616,1.00137-3.21579,1.22917-.92354-.98429-2.23909-1.59935-3.69512-1.59935-2.79625,0-5.06287,2.26757-5.06287,5.06287,0,.39675.04556.78401.13098,1.15324-4.20767-.21072-7.9379-2.22675-10.43612-5.29067-.43472.74794-.68435,1.61738-.68435,2.54662,0,1.75596.89317,3.30596,2.25143,4.21336-.82957-.02658-1.61074-.25438-2.29319-.6331v.06359c0,2.4536,1.74457,4.50001,4.0615,4.96416-.42428.1158-.87229.17749-1.33453.17749-.32557,0-.64354-.03227-.95202-.09017.64449,2.01129,2.51435,3.47586,4.72971,3.51667-1.73223,1.35826-3.91532,2.1679-6.28825,2.1679-.40814,0-.81154-.02373-1.20829-.07119,2.24099,1.43609,4.90151,2.27421,7.76136,2.27421,9.31325,0,14.40459-7.71485,14.40459-14.40554,0-.21926-.00475-.43757-.01424-.65493.98998-.71473,1.84898-1.606,2.52764-2.62066Z"/>
    <text class="cls-2" transform="translate(891.05893 626.86212)"><tspan x="0" y="0">@EU</tspan><tspan class="cls-9" x="52.50977" y="0">R</tspan><tspan x="67.24023" y="0">oc</tspan><tspan class="cls-5" x="95.03613" y="0">ke</tspan><tspan x="121.21826" y="0">t</tspan><tspan class="cls-11" x="130.56494" y="0">S</tspan><tspan x="145.31934" y="0">eries</tspan></text>
  </g>
  <g>
    <path class="cls-1" d="m359.25148,608.08472c-3.19802,0-5.79981,2.6018-5.79981,5.79981v9.2797c0,3.19802,2.6018,5.79981,5.79981,5.79981h9.2797c3.19802,0,5.79981-2.6018,5.79981-5.79981v-9.2797c0-3.19802-2.6018-5.79981-5.79981-5.79981h-9.2797Zm0,2.31992h9.2797c1.91858,0,3.47989,1.56131,3.47989,3.47989v9.2797c0,1.91858-1.56131,3.47989-3.47989,3.47989h-9.2797c-1.91858,0-3.47989-1.56131-3.47989-3.47989v-9.2797c0-1.91858,1.56131-3.47989,3.47989-3.47989Zm10.43966,1.15996c-.64062,0-1.15996.51934-1.15996,1.15996s.51934,1.15996,1.15996,1.15996,1.15996-.51934,1.15996-1.15996-.51934-1.15996-1.15996-1.15996Zm-5.79981,1.15996c-3.19802,0-5.79981,2.6018-5.79981,5.79981s2.6018,5.79981,5.79981,5.79981,5.79981-2.6018,5.79981-5.79981-2.6018-5.79981-5.79981-5.79981Zm0,2.31992c1.91858,0,3.47989,1.56131,3.47989,3.47989s-1.56131,3.47989-3.47989,3.47989-3.47989-1.56131-3.47989-3.47989,1.56131-3.47989,3.47989-3.47989Z"/>
    <text class="cls-2" transform="translate(385.57869 626.64435)"><tspan x="0" y="0">@eu</tspan><tspan class="cls-8" x="50.89502" y="0">r</tspan><tspan class="cls-10" x="60.09473" y="0">o</tspan><tspan class="cls-8" x="74.65381" y="0">r</tspan><tspan class="cls-10" x="83.85352" y="0">oc</tspan><tspan class="cls-5" x="111.6499" y="0">ke</tspan><tspan x="137.83203" y="0">tseries</tspan></text>
  </g>
  <g>
    <path class="cls-1" d="m1353.47722,609.60151c-1.53428-.71785-3.17481-1.23956-4.88994-1.53662-.21064.38083-.45672.89304-.62639,1.30051-1.82322-.27419-3.62968-.27419-5.41938,0-.16963-.40747-.42131-.91969-.63383-1.30051-1.71698.29706-3.35939.82069-4.89368,1.54042-3.09466,4.67644-3.93358,9.23673-3.51412,13.73226,2.05254,1.53279,4.04171,2.46391,5.9973,3.07321.48285-.66454.91348-1.37095,1.28446-2.11545-.70655-.26847-1.38327-.59978-2.02269-.98441.16963-.12567.33557-.25707.49588-.39226,3.90001,1.82413,8.13747,1.82413,11.99088,0,.16219.13519.32809.26659.49588.39226-.6413.38651-1.31988.71782-2.02642.98632.37098.74258.79976,1.45091,1.28446,2.11541,1.95748-.6093,3.94849-1.54039,6.00103-3.0751.49217-5.21147-.84077-9.72988-3.52344-13.73606Zm-12.16425,10.97135c-1.17074,0-2.13085-1.09296-2.13085-2.42392s.9396-2.4258,2.13085-2.4258,2.15135,1.09293,2.13085,2.4258c.00185,1.33096-.93957,2.42392-2.13085,2.42392Zm7.87462,0c-1.17074,0-2.13085-1.09296-2.13085-2.42392s.93957-2.4258,2.13085-2.4258,2.15135,1.09293,2.13085,2.4258c0,1.33096-.9396,2.42392-2.13085,2.42392Z"/>
    <text class="cls-3" transform="translate(1367.23816 626.62384)"><tspan x="0" y="0">d</tspan><tspan class="cls-11" x="15.36621" y="0">i</tspan><tspan class="cls-10" x="21.04248" y="0">s</tspan><tspan class="cls-7" x="32.12695" y="0">c</tspan><tspan x="45.24219" y="0">o</tspan><tspan class="cls-5" x="59.97217" y="0">r</tspan><tspan x="68.2915" y="0">d</tspan><tspan class="cls-7" x="83.65771" y="0">.</tspan><tspan x="88.91846" y="0">gg/mb</tspan><tspan class="cls-11" x="166.80225" y="0">Z</tspan><tspan class="cls-6" x="181.0918" y="0">mh</tspan><tspan class="cls-4" x="215.73926" y="0">F</tspan><tspan x="227.50879" y="0">a</tspan></text>
  </g>
</svg>