<?xml version="1.0" encoding="UTF-8"?>
<svg id="_Scorebug_" data-name="!Scorebug!" xmlns="http://www.w3.org/2000/svg" xmlns:xlink="http://www.w3.org/1999/xlink" viewBox="0 0 3332.279296875 2814.221748929">
  <defs>
    <style>
      .cls-1 {
        fill: url(#ERS_Orange_Gradient-3);
      }

      .cls-2 {
        fill: #023947;
        stroke: #0b7482;
        stroke-miterlimit: 10;
        stroke-width: 2px;
      }

      .cls-3 {
        fill: url(#Unbenannter_Verlauf_33);
      }

      .cls-4 {
        fill: url(#Unbenannter_Verlauf_73-2);
      }

      .cls-5 {
        fill: url(#Unbenannter_Verlauf_74);
      }

      .cls-6 {
        fill: #db6412;
      }

      .cls-7 {
        fill: #0b4655;
      }

      .cls-8 {
        fill: url(#Very_Dark_Orange_Gradient);
      }

      .cls-9 {
        fill: url(#Unbenannter_Verlauf_94);
      }

      .cls-10 {
        fill: url(#Very_Dark_Blue-Orange_Gradient);
      }

      .cls-11 {
        fill: url(#Unbenannter_Verlauf_106);
      }

      .cls-12 {
        fill: url(#Unbenannter_Verlauf_73);
      }

      .cls-13 {
        fill: url(#Unbenannter_Verlauf_106-2);
      }

      .cls-14 {
        fill: url(#Very_Dark_Blue_Gradient);
      }

      .cls-15 {
        fill: url(#ERS_Orange_Gradient-2);
      }

      .cls-16 {
        fill: url(#Unbenannter_Verlauf_73-3);
      }

      .cls-17 {
        fill: url(#Unbenannter_Verlauf_99);
      }

      .cls-18 {
        fill: url(#ERS_Dark_Orange_Gradient);
      }

      .cls-19 {
        fill: url(#ERS_Orange_Gradient-4);
      }

      .cls-20 {
        fill: url(#ERS_Orange_Gradient);
      }
    </style>
    <linearGradient id="Very_Dark_Blue_Gradient" data-name="Very Dark Blue Gradient" x1="1246.4126784088" y1="1085.7372786474" x2="1664.7374745245" y2="1085.7372786474" gradientUnits="userSpaceOnUse">
      <stop offset="0" stop-color="#101926"/>
      <stop offset=".25" stop-color="#1c1c1c"/>
      <stop offset="1" stop-color="#101926"/>
    </linearGradient>
    <linearGradient id="Very_Dark_Orange_Gradient" data-name="Very Dark Orange Gradient" x1="1664.8327430667" y1="1085.8024960379" x2="2083.2513332175" y2="1085.8024960379" gradientUnits="userSpaceOnUse">
      <stop offset="0" stop-color="#281511"/>
      <stop offset=".25" stop-color="#1c1c1c"/>
      <stop offset="1" stop-color="#281511"/>
    </linearGradient>
    <linearGradient id="Unbenannter_Verlauf_106" data-name="Unbenannter Verlauf 106" x1="1664.8353006113" y1="1115.4152016957" x2="1424.096175214" y2="1115.4152016957" gradientUnits="userSpaceOnUse">
      <stop offset="0" stop-color="#101926"/>
      <stop offset=".3870512893" stop-color="#0b4655"/>
    </linearGradient>
    <linearGradient id="Unbenannter_Verlauf_33" data-name="Unbenannter Verlauf 33" x1="1148.9452871045" y1="1079.6385538364" x2="1304.5078371649" y2="1079.6385538364" gradientUnits="userSpaceOnUse">
      <stop offset="0" stop-color="#1c1c1c"/>
      <stop offset="1" stop-color="#101926"/>
    </linearGradient>
    <linearGradient id="ERS_Dark_Orange_Gradient" data-name="ERS Dark Orange Gradient" x1="1981.3190122566" y1="1079.6385538352" x2="2136.7686500573" y2="1079.6385538352" gradientTransform="translate(4161.9314711381) rotate(-180) scale(1 -1)" gradientUnits="userSpaceOnUse">
      <stop offset="0" stop-color="#1c1c1c"/>
      <stop offset="1" stop-color="#281511"/>
    </linearGradient>
    <linearGradient id="Unbenannter_Verlauf_99" data-name="Unbenannter Verlauf 99" x1="2045.5007174318" y1="1079.6385538384" x2="1981.319012601" y2="1079.6385538384" gradientTransform="translate(4161.9314711381) rotate(-180) scale(1 -1)" gradientUnits="userSpaceOnUse">
      <stop offset="0" stop-color="#281511"/>
      <stop offset="1" stop-color="#da6517"/>
    </linearGradient>
    <linearGradient id="Unbenannter_Verlauf_94" data-name="Unbenannter Verlauf 94" x1="1981.3190119122" y1="1048.4986963544" x2="2124.6565970891" y2="1048.4986963608" gradientTransform="translate(4161.9314711381) rotate(-180) scale(1 -1)" gradientUnits="userSpaceOnUse">
      <stop offset="0" stop-color="#da6517"/>
      <stop offset="1" stop-color="#281511"/>
    </linearGradient>
    <linearGradient id="ERS_Orange_Gradient" data-name="ERS Orange Gradient" x1="1664.830829201" y1="1115.4152016847" x2="1905.5699545984" y2="1115.4152016847" gradientUnits="userSpaceOnUse">
      <stop offset="0" stop-color="#281511"/>
      <stop offset="1" stop-color="#da6517"/>
    </linearGradient>
    <linearGradient id="Unbenannter_Verlauf_106-2" data-name="Unbenannter Verlauf 106" x1="1664.8353006113" y1="1091.2622866434" x2="1424.096175214" y2="1091.2622866434" gradientTransform="translate(0 2219.4778261527) scale(1 -1)" xlink:href="#Unbenannter_Verlauf_106"/>
    <linearGradient id="ERS_Orange_Gradient-2" data-name="ERS Orange Gradient" y1="1113.8275040303" y2="1113.8275040303" gradientTransform="translate(0 2242.043043544) scale(1 -1)" xlink:href="#ERS_Orange_Gradient"/>
    <linearGradient id="Unbenannter_Verlauf_73" data-name="Unbenannter Verlauf 73" x1="1292.4694418301" y1="1048.499690035" x2="1148.9452871045" y2="1048.499690035" gradientUnits="userSpaceOnUse">
      <stop offset="0" stop-color="#101926"/>
      <stop offset="1" stop-color="#0b7482"/>
    </linearGradient>
    <linearGradient id="Unbenannter_Verlauf_73-2" data-name="Unbenannter Verlauf 73" x1="1581.85574695" y1="1050.8620859957" x2="1246.5105044958" y2="1050.8620859957" xlink:href="#Unbenannter_Verlauf_73"/>
    <linearGradient id="Unbenannter_Verlauf_74" data-name="Unbenannter Verlauf 74" x1="1329.4900581572" y1="1085.8024960349" x2="1246.5105044958" y2="1085.8024960349" gradientUnits="userSpaceOnUse">
      <stop offset="0" stop-color="#101926"/>
      <stop offset="1" stop-color="#0b7482"/>
    </linearGradient>
    <linearGradient id="ERS_Orange_Gradient-3" data-name="ERS Orange Gradient" x1="2000.1760716552" y1="1085.8024960346" x2="2083.15562532" y2="1085.8024960346" xlink:href="#ERS_Orange_Gradient"/>
    <linearGradient id="ERS_Orange_Gradient-4" data-name="ERS Orange Gradient" x1="1747.8103828658" y1="1050.8620859957" x2="2083.15562532" y2="1050.8620859957" xlink:href="#ERS_Orange_Gradient"/>
    <linearGradient id="Unbenannter_Verlauf_73-3" data-name="Unbenannter Verlauf 73" x1="1213.313561481" y1="1079.6385538364" y2="1079.6385538364" xlink:href="#Unbenannter_Verlauf_73"/>
    <linearGradient id="Very_Dark_Blue-Orange_Gradient" data-name="Very Dark Blue-Orange Gradient" x1="1131.211215806" y1="1036.8061893114" x2="2198.3298338542" y2="1036.8061893114" gradientUnits="userSpaceOnUse">
      <stop offset="0" stop-color="#101926"/>
      <stop offset=".5" stop-color="#1c1c1c"/>
      <stop offset="1" stop-color="#281511"/>
    </linearGradient>
  </defs>
  <polygon class="cls-14" points="1664.7374745245 1046.7372786433 1246.4126784088 1046.7372786444 1276.1382189091 1080.3963978178 1305.4611340098 1113.1746232993 1315.2863256083 1124.7372786514 1664.7374745245 1124.7372786343 1664.7374745245 1046.7372786433"/>
  <polygon class="cls-8" points="1664.8353006114 1046.8024960346 2083.2513332175 1046.8024960346 2055.9681982272 1077.5876334323 2032.4555703233 1103.8670342026 2013.8190582184 1124.8024960413 1664.8327430667 1124.8024960256 1664.8353006114 1046.8024960346"/>
  <polyline class="cls-11" points="1664.8353006113 1124.802496032 1616.0244879477 1106.027907358 1424.096175214 1124.8024960335"/>
  <polygon class="cls-3" points="1207.1745148084 1112.4746116307 1148.9452871045 1046.8024960357 1246.5105044958 1046.8024960357 1304.5078371649 1112.4746116372 1207.1745148084 1112.4746116307"/>
  <polygon class="cls-18" points="2122.4961430899 1112.4746116314 2180.6124585372 1046.8024960388 2083.1601534055 1046.8024960346 2025.1628207335 1112.4746116335 2122.4961430899 1112.4746116314"/>
  <polygon class="cls-17" points="2180.6124585372 1046.8024960388 2116.4307537064 1112.4746116376 2122.3200186198 1112.4746116379 2151.0233505603 1080.2385338258 2180.6124585372 1046.8024960388"/>
  <polyline class="cls-9" points="2180.6124585372 1046.8024960388 2177.3906449395 1050.1948959148 2037.2748733602 1046.802496038"/>
  <polyline class="cls-20" points="1664.830829201 1124.8024960144 1713.6416418654 1106.0279073426 1905.5699545984 1124.8024960268"/>
  <path class="cls-6" d="m1698.9881936778,1068.3215223359c-4.3396764026-1.9420062929-9.1749284343-4.1756814343-13.4831506137-6.2562323963-2.9494640558-1.2594791619-18.2717265537-10.5468804112-21.4205736125-12.2413063358.0001597731-.000147654,1.5008921949.0019046531,1.5008921949.0019046531l-57.4552001953,33.0936450958.7512207031-1.2991867065-.002746582,8.8162727356c.1158868088,2.5903959108-.1592558301,6.2019890932-.410346196,8.8161433472.000128911-.0000003114-.5449760697-.9457247985-.5449760697-.9457247985,3.2719255125,2.257795724,6.5116499113,4.564828796,9.7335177357,6.8969230926-1.8099947864-.8251152314-3.6327486926-1.6283302582-5.4303561145-2.4748420991-1.9662049076-.9126955952-3.9348265442-1.8241661455-5.8857422274-2.7652442983l-.0574340422-.7117912241c-.6105646183-4.9957275247-.3679311821-12.5462023745-.4018669954-17.6326813394-.0000495086.0000099832.0001946321-.86682275.0001946321-.86682275l.751159668-.4326515198,57.4552001953-33.0936450958.7510986328-.4326267242.75.4346790314c3.1108747785,1.9083289131,18.5833738687,10.5312543085,21.268929339,12.5026855589,3.9192565312,2.7392859877,8.302059926,5.750560022,12.1301795477,8.5905017732h0Z"/>
  <path class="cls-6" d="m1630.3996316661,1114.524735074c4.3725668377,1.9378363695,9.2436034238,4.1691554033,13.5849571158,6.2464784612,2.9634713841,1.2712727774,18.4123940495,10.554002817,21.5850038102,12.2484802513-.0001611213.0001508456-1.4991235237.0021955233-1.4991235237.0021955233l57.2554931641-33.1346206665-.7485961914,1.2981185913c.0650754236-3.0574981623-.1378910004-10.2667339165.0685657746-13.2228674812.0001598113-.0000023918.3575206511-4.4076256828.3575206511-4.4076256828l.5367431641.9298324585c-2.8857500773-1.9208587373-6.7502960778-4.7828118968-9.5386739321-6.7490241226,1.7734761782.8067786392,3.5606465884,1.5899054702,5.3221822329,2.4172675308l5.2907104492,2.4717941284.479675293.2241134644c.1958284861,2.8943447383.6578267706,6.6540632371.4830916408,9.5213108296.0001847264-.0000477071.0001847264,8.8151988749.0001847264,8.8151988749v.8651046753l-.7487182617.4333114624-57.2554931641,33.1346206665-.7490844727.4334945679-.7502441406-.4314498901c-3.136168234-1.9079892457-18.7263207659-10.5356252048-21.4428212825-12.4954957256-3.9516790287-2.7424898363-8.3710509496-5.7560979495-12.2313730535-8.600237917h0Z"/>
  <polyline class="cls-13" points="1664.8353006113 1124.802496034 1616.0244879477 1131.6285829852 1424.096175214 1124.8024960335"/>
  <polyline class="cls-15" points="1664.830829201 1124.8024960408 1713.6416418654 1131.6285829911 1905.5699545984 1124.8024960363"/>
  <polygon class="cls-7" points="1713.5309527853 1131.6285829911 1664.830829201 1136.0633655998 1616.0244879477 1131.6285829852 1664.8353006114 1124.8024960256 1713.5309527853 1131.6285829911"/>
  <polygon class="cls-2" points="1713.6216515688 1106.027907358 1713.6461132751 1046.8024960346 1664.8207013599 1046.8024960346 1616.048949654 1046.8024960346 1616.0244879477 1106.027907358 1664.8230714005 1134.2017808691 1713.6216515688 1106.027907358"/>
  <polyline class="cls-12" points="1148.9452871045 1046.8024960357 1152.2722835936 1050.1968840344 1292.4694418301 1046.8024960411"/>
  <polyline class="cls-4" points="1246.5105044958 1046.8024960357 1255.1480161809 1054.9216759557 1581.85574695 1046.8024960486"/>
  <polygon class="cls-5" points="1246.5105044958 1046.8024960357 1329.4900581572 1124.8024960341 1315.39502126 1124.8024960341 1315.39502126 1124.8024960341 1246.5105044958 1046.8024960357"/>
  <polygon class="cls-1" points="2083.15562532 1046.8024960369 2000.1760716552 1124.8024960316 2014.2711085523 1124.8024960323 2014.2711085523 1124.8024960323 2083.15562532 1046.8024960369"/>
  <polyline class="cls-19" points="2083.15562532 1046.8024960369 2074.5181136345 1054.9216759566 1747.8103828658 1046.8024960348"/>
  <polygon class="cls-16" points="1148.9452871045 1046.8024960357 1213.313561481 1112.4746116372 1207.1745148084 1112.4746116307 1178.6888304511 1080.3478733984 1148.9452871045 1046.8024960357"/>
  <path class="cls-6" d="m1607.3813821544,1081.619782071c.5887731682,1.2351650091,1.174886484,2.5621906422,1.539493949,3.8575889237-.0773788452.1671937276-.0290231701,4.64059979-.0422549461,4.9591081989.000014415.0000905971-.002732167,8.8164129238-.002732167,8.8164129238l-.7484130859-1.2984924316,5.1404418945,2.975692749,1.2850952148.7439193726c.1973876953.1529998779.4700317383.1759567261.6458740234.3662261963l.5054931641.6087417603c2.3815361543,2.9581303659,2.5923558397,2.7527444478-1.2356047006,2.1341892289.0001310677.0000804855-.7795320182-.1351047562-.7795320182-.1351047562-.2525634766-.0577087402-.4082641602-.2827224731-.6392211914-.3776931763-1.3919502019-.8064490882-5.7555136-3.3312982334-7.1744389461-4.1531236972l.0003056453-.8652860318c.0012384497-2.9168424743.0030097564-10.4034144905.0040900595-13.224486763-.0301102166-.3850799994-.0736163983-.7402544897.1228813201-1.1019871069.4022785098-1.0904352107.8441909427-2.253990987,1.3785217845-3.3057053904h0Z"/>
  <polygon class="cls-7" points="1617.0255180027 1105.418426204 1664.8327399796 1100.6503221216 1712.7483440897 1105.418426204 1664.8869310462 1133.3803827257 1617.0255180027 1105.418426204"/>
  <path class="cls-6" d="m1630.3996316661,1114.524735074c4.4007943552,1.8903297901,9.2779627472,4.1067427756,13.6416643001,6.1478712494,2.8573181852,1.4845741241,18.3763252592,10.6091297943,21.5282657178,12.3471341714-.0001302132.0001041373-1.4990926156.002148815-1.4990926156.002148815l57.2532958984-33.1384353638-.750793457,1.3019332886c-.086530345-1.3071301477.0634643138-3.0948737603.2008132048-4.4076484861.3388923576-4.2658778942.838196662-8.9854579485,1.3035251671-13.2229072862.5073194083,4.2304504157.9208713643,8.9561205591,1.3037437648,13.2228858639.2026365223,1.6962021628.2627721708,3.5942456499.1913352001,5.2807656257.0000943819-.000003066-.7415438017.4291351176-.7415438017.4291351176l-57.2576904297,33.1308059692-.7491455078.4334564209c-3.7463138414-2.206808601-18.7502924616-10.6870563447-22.2497022009-12.828313883-3.9371212138-2.771625062-8.3364977245-5.8145709727-12.1746752405-8.6988315028h0Z"/>
  <polygon class="cls-10" points="2180.6124585372 1046.806613722 1148.9452871045 1046.806613722 1131.211215806 1026.8057649007 2198.3298338542 1026.8057649007 2180.6124585372 1046.806613722"/>
</svg>